<svg version="1.1" xmlns="http://www.w3.org/2000/svg" xmlns:xlink="http://www.w3.org/1999/xlink" width="252" height="72"><defs/><g><text fill="#eeeeee" stroke="none" font-family="Arial" font-size="24px" font-style="normal" font-weight="normal" text-decoration="none" x="0" y="0">UNREGISTERED</text><text fill="#eeeeee" stroke="none" font-family="Arial" font-size="24px" font-style="normal" font-weight="normal" text-decoration="none" x="0" y="30">UNREGISTERED</text><text fill="#eeeeee" stroke="none" font-family="Arial" font-size="24px" font-style="normal" font-weight="normal" text-decoration="none" x="0" y="60">UNREGISTERED</text><text fill="#eeeeee" stroke="none" font-family="Arial" font-size="24px" font-style="normal" font-weight="normal" text-decoration="none" x="200" y="0">UNREGISTERED</text><text fill="#eeeeee" stroke="none" font-family="Arial" font-size="24px" font-style="normal" font-weight="normal" text-decoration="none" x="200" y="30">UNREGISTERED</text><text fill="#eeeeee" stroke="none" font-family="Arial" font-size="24px" font-style="normal" font-weight="normal" text-decoration="none" x="200" y="60">UNREGISTERED</text><g transform="translate(-446,-422) scale(1,1)"><rect fill="#C0C0C0" stroke="none" x="463" y="447" width="50.919921875" height="44" opacity="0.2"/></g><g transform="translate(-446,-422) scale(1,1)"><rect fill="#ffffff" stroke="none" x="456" y="440" width="50.919921875" height="44"/></g><g transform="translate(-446,-422) scale(1,1)"><path fill="none" stroke="#000000" d="M 456 440 L 506.919921875 440 L 506.919921875 484 L 456 484 L 456 440 Z Z" stroke-miterlimit="10"/></g><g transform="translate(-446,-422) scale(1,1)"><path fill="none" stroke="#000000" d="M 456 465 L 506.919921875 465" stroke-miterlimit="10"/></g><g transform="translate(-446,-422) scale(1,1)"><path fill="none" stroke="#000000" d="M 456 475 L 506.919921875 475" stroke-miterlimit="10"/></g><g transform="translate(-446,-422) scale(1,1)"><g><path fill="none" stroke="none"/><text fill="#000000" stroke="none" font-family="Arial" font-size="13px" font-style="normal" font-weight="bold" text-decoration="none" x="470.986328125" y="459.5">Car</text></g></g><g transform="translate(-446,-422) scale(1,1)"><path fill="#ffffff" stroke="none" d="M 568 432 L 677 432 L 687 442 L 687 481 L 568 481 L 568 432"/></g><g transform="translate(-446,-422) scale(1,1)"><path fill="none" stroke="#000000" d="M 568 432 L 677 432 L 687 442 L 687 481 L 568 481 L 568 432 L 568 432" stroke-miterlimit="10"/></g><g transform="translate(-446,-422) scale(1,1)"><path fill="none" stroke="#000000" d="M 677 432 L 677 442 L 687 442 L 677 432" stroke-miterlimit="10"/></g><g transform="translate(-446,-422) scale(1,1)"><g><path fill="none" stroke="none"/><text fill="#000000" stroke="none" font-family="Arial" font-size="13px" font-style="normal" font-weight="normal" text-decoration="none" x="573" y="450">All types of Cars</text><text fill="#000000" stroke="none" font-family="Arial" font-size="13px" font-style="normal" font-weight="normal" text-decoration="none" x="573" y="463">and SUVs are</text><text fill="#000000" stroke="none" font-family="Arial" font-size="13px" font-style="normal" font-weight="normal" text-decoration="none" x="573" y="476">concerned</text></g></g><g transform="translate(-446,-422) scale(1,1)"><path fill="none" stroke="#000000" d="M 507 456 L 568 456" stroke-miterlimit="10" stroke-dasharray="3"/></g></g></svg>