<svg version="1.1" xmlns="http://www.w3.org/2000/svg" xmlns:xlink="http://www.w3.org/1999/xlink" width="458.91357421875" height="277"><defs/><g><text fill="#eeeeee" stroke="none" font-family="Arial" font-size="24px" font-style="normal" font-weight="normal" text-decoration="none" x="0" y="0">UNREGISTERED</text><text fill="#eeeeee" stroke="none" font-family="Arial" font-size="24px" font-style="normal" font-weight="normal" text-decoration="none" x="0" y="30">UNREGISTERED</text><text fill="#eeeeee" stroke="none" font-family="Arial" font-size="24px" font-style="normal" font-weight="normal" text-decoration="none" x="0" y="60">UNREGISTERED</text><text fill="#eeeeee" stroke="none" font-family="Arial" font-size="24px" font-style="normal" font-weight="normal" text-decoration="none" x="0" y="90">UNREGISTERED</text><text fill="#eeeeee" stroke="none" font-family="Arial" font-size="24px" font-style="normal" font-weight="normal" text-decoration="none" x="0" y="120">UNREGISTERED</text><text fill="#eeeeee" stroke="none" font-family="Arial" font-size="24px" font-style="normal" font-weight="normal" text-decoration="none" x="0" y="150">UNREGISTERED</text><text fill="#eeeeee" stroke="none" font-family="Arial" font-size="24px" font-style="normal" font-weight="normal" text-decoration="none" x="0" y="180">UNREGISTERED</text><text fill="#eeeeee" stroke="none" font-family="Arial" font-size="24px" font-style="normal" font-weight="normal" text-decoration="none" x="0" y="210">UNREGISTERED</text><text fill="#eeeeee" stroke="none" font-family="Arial" font-size="24px" font-style="normal" font-weight="normal" text-decoration="none" x="0" y="240">UNREGISTERED</text><text fill="#eeeeee" stroke="none" font-family="Arial" font-size="24px" font-style="normal" font-weight="normal" text-decoration="none" x="0" y="270">UNREGISTERED</text><text fill="#eeeeee" stroke="none" font-family="Arial" font-size="24px" font-style="normal" font-weight="normal" text-decoration="none" x="200" y="0">UNREGISTERED</text><text fill="#eeeeee" stroke="none" font-family="Arial" font-size="24px" font-style="normal" font-weight="normal" text-decoration="none" x="200" y="30">UNREGISTERED</text><text fill="#eeeeee" stroke="none" font-family="Arial" font-size="24px" font-style="normal" font-weight="normal" text-decoration="none" x="200" y="60">UNREGISTERED</text><text fill="#eeeeee" stroke="none" font-family="Arial" font-size="24px" font-style="normal" font-weight="normal" text-decoration="none" x="200" y="90">UNREGISTERED</text><text fill="#eeeeee" stroke="none" font-family="Arial" font-size="24px" font-style="normal" font-weight="normal" text-decoration="none" x="200" y="120">UNREGISTERED</text><text fill="#eeeeee" stroke="none" font-family="Arial" font-size="24px" font-style="normal" font-weight="normal" text-decoration="none" x="200" y="150">UNREGISTERED</text><text fill="#eeeeee" stroke="none" font-family="Arial" font-size="24px" font-style="normal" font-weight="normal" text-decoration="none" x="200" y="180">UNREGISTERED</text><text fill="#eeeeee" stroke="none" font-family="Arial" font-size="24px" font-style="normal" font-weight="normal" text-decoration="none" x="200" y="210">UNREGISTERED</text><text fill="#eeeeee" stroke="none" font-family="Arial" font-size="24px" font-style="normal" font-weight="normal" text-decoration="none" x="200" y="240">UNREGISTERED</text><text fill="#eeeeee" stroke="none" font-family="Arial" font-size="24px" font-style="normal" font-weight="normal" text-decoration="none" x="200" y="270">UNREGISTERED</text><text fill="#eeeeee" stroke="none" font-family="Arial" font-size="24px" font-style="normal" font-weight="normal" text-decoration="none" x="400" y="0">UNREGISTERED</text><text fill="#eeeeee" stroke="none" font-family="Arial" font-size="24px" font-style="normal" font-weight="normal" text-decoration="none" x="400" y="30">UNREGISTERED</text><text fill="#eeeeee" stroke="none" font-family="Arial" font-size="24px" font-style="normal" font-weight="normal" text-decoration="none" x="400" y="60">UNREGISTERED</text><text fill="#eeeeee" stroke="none" font-family="Arial" font-size="24px" font-style="normal" font-weight="normal" text-decoration="none" x="400" y="90">UNREGISTERED</text><text fill="#eeeeee" stroke="none" font-family="Arial" font-size="24px" font-style="normal" font-weight="normal" text-decoration="none" x="400" y="120">UNREGISTERED</text><text fill="#eeeeee" stroke="none" font-family="Arial" font-size="24px" font-style="normal" font-weight="normal" text-decoration="none" x="400" y="150">UNREGISTERED</text><text fill="#eeeeee" stroke="none" font-family="Arial" font-size="24px" font-style="normal" font-weight="normal" text-decoration="none" x="400" y="180">UNREGISTERED</text><text fill="#eeeeee" stroke="none" font-family="Arial" font-size="24px" font-style="normal" font-weight="normal" text-decoration="none" x="400" y="210">UNREGISTERED</text><text fill="#eeeeee" stroke="none" font-family="Arial" font-size="24px" font-style="normal" font-weight="normal" text-decoration="none" x="400" y="240">UNREGISTERED</text><text fill="#eeeeee" stroke="none" font-family="Arial" font-size="24px" font-style="normal" font-weight="normal" text-decoration="none" x="400" y="270">UNREGISTERED</text><g transform="translate(-246,-350) scale(1,1)"><rect fill="#C0C0C0" stroke="none" x="391" y="385" width="215.77978515625" height="85" opacity="0.2"/></g><g transform="translate(-246,-350) scale(1,1)"><rect fill="#C0C0C0" stroke="none" x="598.8388671875" y="367" width="16.94091796875" height="22" opacity="0.2"/></g><g transform="translate(-246,-350) scale(1,1)"><rect fill="#ffffff" stroke="none" x="384" y="378" width="215.77978515625" height="85"/></g><g transform="translate(-246,-350) scale(1,1)"><path fill="none" stroke="#000000" d="M 384 378 L 599.77978515625 378 L 599.77978515625 463 L 384 463 L 384 378 Z Z" stroke-miterlimit="10"/></g><g transform="translate(-246,-350) scale(1,1)"><path fill="none" stroke="#000000" d="M 384 403 L 599.77978515625 403" stroke-miterlimit="10"/></g><g transform="translate(-246,-350) scale(1,1)"><path fill="none" stroke="#000000" d="M 384 426 L 599.77978515625 426" stroke-miterlimit="10"/></g><g transform="translate(-246,-350) scale(1,1)"><g><path fill="none" stroke="none"/><text fill="#000000" stroke="none" font-family="Arial" font-size="13px" font-style="normal" font-weight="bold" text-decoration="none" x="476.350830078125" y="397.5">Node</text></g></g><g transform="translate(-246,-350) scale(1,1)"><g><path fill="none" stroke="none"/><text fill="#000000" stroke="none" font-family="Arial" font-size="13px" font-style="normal" font-weight="normal" text-decoration="none" x="389" y="420.5">-element: T</text></g></g><g transform="translate(-246,-350) scale(1,1)"><g><path fill="none" stroke="none"/><text fill="#000000" stroke="none" font-family="Arial" font-size="13px" font-style="normal" font-weight="normal" text-decoration="none" x="389" y="443.5">+getElement(): T</text></g></g><g transform="translate(-246,-350) scale(1,1)"><g><path fill="none" stroke="none"/><text fill="#000000" stroke="none" font-family="Arial" font-size="13px" font-style="normal" font-weight="normal" text-decoration="none" x="389" y="458.5">+setElement(element: T)</text></g></g><g transform="translate(-246,-350) scale(1,1)"><rect fill="#ffffff" stroke="none" x="591.8388671875" y="360" width="16.94091796875" height="22"/></g><g transform="translate(-246,-350) scale(1,1)"><path fill="none" stroke="#000000" d="M 591.8388671875 360 L 608.77978515625 360 L 608.77978515625 382 L 591.8388671875 382 L 591.8388671875 360 Z Z" stroke-miterlimit="10" stroke-dasharray="3"/></g><g transform="translate(-246,-350) scale(1,1)"><g><path fill="none" stroke="none"/><text fill="#000000" stroke="none" font-family="Arial" font-size="13px" font-style="normal" font-weight="normal" text-decoration="none" x="596.8388671875" y="377.5">T</text></g></g><g transform="translate(-246,-350) scale(1,1)"><rect fill="#C0C0C0" stroke="none" x="263" y="567" width="103.6689453125" height="57" opacity="0.2"/></g><g transform="translate(-246,-350) scale(1,1)"><rect fill="#ffffff" stroke="none" x="256" y="560" width="103.6689453125" height="57"/></g><g transform="translate(-246,-350) scale(1,1)"><path fill="none" stroke="#000000" d="M 256 560 L 359.6689453125 560 L 359.6689453125 617 L 256 617 L 256 560 Z Z" stroke-miterlimit="10"/></g><g transform="translate(-246,-350) scale(1,1)"><path fill="none" stroke="#000000" d="M 256 585 L 359.6689453125 585" stroke-miterlimit="10"/></g><g transform="translate(-246,-350) scale(1,1)"><path fill="none" stroke="#000000" d="M 256 608 L 359.6689453125 608" stroke-miterlimit="10"/></g><g transform="translate(-246,-350) scale(1,1)"><g><path fill="none" stroke="none"/><text fill="#000000" stroke="none" font-family="Arial" font-size="13px" font-style="normal" font-weight="bold" text-decoration="none" x="269.88818359375" y="579.5">StudentNode</text></g></g><g transform="translate(-246,-350) scale(1,1)"><g><path fill="none" stroke="none"/><text fill="#000000" stroke="none" font-family="Arial" font-size="13px" font-style="normal" font-weight="normal" text-decoration="none" x="261" y="602.5">-grade: int</text></g></g><g transform="translate(-246,-350) scale(1,1)"><rect fill="#C0C0C0" stroke="none" x="599" y="567" width="102.91357421875" height="57" opacity="0.2"/></g><g transform="translate(-246,-350) scale(1,1)"><rect fill="#ffffff" stroke="none" x="592" y="560" width="102.91357421875" height="57"/></g><g transform="translate(-246,-350) scale(1,1)"><path fill="none" stroke="#000000" d="M 592 560 L 694.91357421875 560 L 694.91357421875 617 L 592 617 L 592 560 Z Z" stroke-miterlimit="10"/></g><g transform="translate(-246,-350) scale(1,1)"><path fill="none" stroke="#000000" d="M 592 585 L 694.91357421875 585" stroke-miterlimit="10"/></g><g transform="translate(-246,-350) scale(1,1)"><path fill="none" stroke="#000000" d="M 592 608 L 694.91357421875 608" stroke-miterlimit="10"/></g><g transform="translate(-246,-350) scale(1,1)"><g><path fill="none" stroke="none"/><text fill="#000000" stroke="none" font-family="Arial" font-size="13px" font-style="normal" font-weight="bold" text-decoration="none" x="599.013671875" y="579.5">EmployeeNode</text></g></g><g transform="translate(-246,-350) scale(1,1)"><g><path fill="none" stroke="none"/><text fill="#000000" stroke="none" font-family="Arial" font-size="13px" font-style="normal" font-weight="normal" text-decoration="none" x="597" y="602.5">-salary: int</text></g></g><g transform="translate(-246,-350) scale(1,1)"><path fill="none" stroke="#000000" d="M 360 588 L 464 588 L 464 463" stroke-miterlimit="10" stroke-dasharray="3"/></g><g transform="translate(-246,-350) scale(1,1)"><path fill="#FFFFFF" stroke="none" d="M 472.419035512032 483.3253497152483 L 464 463 L 455.580964487968 483.3253497152483"/></g><g transform="translate(-246,-350) scale(1,1)"><path fill="none" stroke="#000000" d="M 472.419035512032 483.3253497152483 L 464 463 L 455.580964487968 483.3253497152483 L 472.419035512032 483.3253497152483" stroke-miterlimit="10"/></g><g transform="translate(-246,-350) scale(1,1)"><g><path fill="none" stroke="none"/><text fill="#000000" stroke="none" font-family="Arial" font-size="13px" font-style="normal" font-weight="normal" text-decoration="none" x="406.996826171875" y="571.5">Student </text></g></g><g transform="translate(-246,-350) scale(1,1)"><g><path fill="none" stroke="none"/><text fill="#000000" stroke="none" font-family="Arial" font-size="13px" font-style="normal" font-weight="normal" text-decoration="none" x="408.5" y="555.5">«bind»</text></g></g><g transform="translate(-246,-350) scale(1,1)"><path fill="none" stroke="#000000" d="M 592 588 L 504 588 L 504 463" stroke-miterlimit="10" stroke-dasharray="3"/></g><g transform="translate(-246,-350) scale(1,1)"><path fill="#FFFFFF" stroke="none" d="M 512.419035512032 483.3253497152483 L 504 463 L 495.580964487968 483.3253497152483"/></g><g transform="translate(-246,-350) scale(1,1)"><path fill="none" stroke="#000000" d="M 512.419035512032 483.3253497152483 L 504 463 L 495.580964487968 483.3253497152483 L 512.419035512032 483.3253497152483" stroke-miterlimit="10"/></g><g transform="translate(-246,-350) scale(1,1)"><g><path fill="none" stroke="none"/><text fill="#000000" stroke="none" font-family="Arial" font-size="13px" font-style="normal" font-weight="normal" text-decoration="none" x="511.5" y="571.5">Employee </text></g></g><g transform="translate(-246,-350) scale(1,1)"><g><path fill="none" stroke="none"/><text fill="#000000" stroke="none" font-family="Arial" font-size="13px" font-style="normal" font-weight="normal" text-decoration="none" x="535.5" y="556.5">«bind»</text></g></g></g></svg>